<mxfile host="app.diagrams.net" modified="2023-08-29T02:14:34.079Z" agent="Mozilla/5.0 (Linux; Android 10; K) AppleWebKit/537.36 (KHTML, like Gecko) Chrome/116.0.0.0 Mobile Safari/537.36" version="21.6.9" etag="HtxC3GBcf9jjpmqQWQej" type="github">
  <diagram name="Halaman-1" id="hzeLTk5cC5XjR4Xd7Op0">
    <mxGraphModel>
      <root>
        <mxCell id="0" />
        <mxCell id="1" parent="0" />
      </root>
    </mxGraphModel>
  </diagram>
</mxfile>
